<?xml version="1.0"?>
<svg xmlns="http://www.w3.org/2000/svg" xmlns:xlink="http://www.w3.org/1999/xlink" xmlns:svgjs="http://svgjs.com/svgjs" version="1.1" width="512" height="512" x="0" y="0" viewBox="0 0 512.00001 512" style="enable-background:new 0 0 512 512" xml:space="preserve" class=""><g><path xmlns="http://www.w3.org/2000/svg" d="m476.980469 355.269531-173.371094 43.640625c-1.488281-5.101562-4.234375-9.921875-8.242187-13.929687l-55.234376-55.234375c-6.851562-6.847656-15.957031-10.617188-25.644531-10.617188h-110.175781c-2.078125-18.992187-18.210938-33.824218-37.757812-33.824218h-28.570313c-20.945313 0-37.984375 17.035156-37.984375 37.984374v76.445313c0 4.152344 3.371094 7.519531 7.519531 7.519531 4.152344 0 7.523438-3.367187 7.523438-7.519531v-76.445313c0-12.65625 10.296875-22.941406 22.941406-22.941406h28.570313c11.222656 0 20.597656 8.109375 22.5625 18.78125.558593 3.003906.382812-5.992187.382812 137.59375 0 12.65625-10.296875 22.945313-22.945312 22.945313h-28.570313c-12.644531 0-22.941406-10.289063-22.941406-22.945313v-26.90625c0-4.148437-3.371094-7.519531-7.523438-7.519531-4.148437 0-7.519531 3.371094-7.519531 7.519531v26.90625c0 20.949219 17.039062 37.988282 37.984375 37.988282h28.570313c20.949218 0 37.988281-17.039063 37.988281-37.988282v-13.3125c55.390625 9.566406 43.472656 6.082032 126.027343 46.472656 13.414063 6.566407 26.351563 19.03125 53.722657 19.03125 14.59375 0 28.816406-4.105468 41.167969-11.878906l143.054687-72.535156c3.707031-1.878906 5.1875-6.40625 3.308594-10.109375-1.878907-3.703125-6.40625-5.183594-10.109375-3.308594-.515625.261719-143.527344 72.75-144.011719 73.058594-10.007813 6.367187-21.558594 9.730469-33.410156 9.730469-22.816407 0-32.726563-10.457032-47.113281-17.5-83.941407-41.066406-72.011719-37.753906-132.636719-48.222656v-93.980469h109.949219c5.675781 0 11 2.207031 15.011718 6.21875l55.222656 55.222656c10.878907 10.878906 3.5625 29.132813-11.5 29.132813-4.496093 0-8.726562-1.753907-11.914062-4.933594l-49.75-49.769532c-2.9375-2.9375-7.703125-2.9375-10.640625 0s-2.9375 7.703126 0 10.640626l49.757813 49.769531c17.9375 17.878906 48.816406 8.753906 53.648437-16.207031 185.863281-46.789063 175.601563-44.359376 177.46875-44.359376 15.207031 0 20.355469 20.695313 6.753906 27.59375-3.707031 1.878907-5.1875 6.40625-3.308593 10.109376 1.875 3.707031 6.402343 5.1875 10.109374 3.308593 11.078126-5.617187 16.132813-16.449219 16.132813-26.320312 0-20.402344-19.964844-32.964844-34.503906-29.304688zm0 0" fill="#2c0157" data-original="#000000" style=""/><path xmlns="http://www.w3.org/2000/svg" d="m26.730469 439.195312c0 14.082032 11.457031 25.539063 25.539062 25.539063s25.539063-11.457031 25.539063-25.539063c0-10.21875-6.066406-19.433593-15.453125-23.46875-3.816407-1.640624-8.238281.121094-9.878907 3.9375-1.644531 3.816407.121094 8.238282 3.933594 9.882813 10.417969 4.480469 7.238282 20.144531-4.140625 20.144531-7.082031 0-12.152343-6.910156-10.007812-13.675781 3.242187-10.214844-15.53125-17.011719-15.53125 3.179687zm0 0" fill="#2c0157" data-original="#000000" style=""/><path xmlns="http://www.w3.org/2000/svg" d="m501.917969 184.898438-36.265625-13.199219c.242187-4.324219.242187-8.59375 0-12.9375l36.261718-13.199219c7.957032-2.890625 12.050782-11.671875 9.15625-19.628906l-12.316406-33.839844c-2.886718-7.933594-11.695312-12.042969-19.628906-9.15625l-36.261719 13.199219c-2.582031-3.449219-5.363281-6.757813-8.320312-9.90625l19.296875-33.421875c4.222656-7.3125 1.707031-16.699219-5.605469-20.921875l-31.1875-18.003907c-3.542969-2.046874-7.667969-2.59375-11.621094-1.53125-3.949219 1.058594-7.253906 3.59375-9.296875 7.136719l-19.289062 33.402344c-4.191406-.980469-8.453125-1.726563-12.75-2.230469l-6.699219-38.003906c-1.46875-8.316406-9.425781-13.886719-17.742187-12.421875l-35.464844 6.25c-8.316406 1.46875-13.890625 9.425781-12.421875 17.742187l6.699219 37.988282c-3.847657 1.949218-7.59375 4.113281-11.207032 6.484375l-29.558594-24.804688c-6.496093-5.453125-16.144531-4.585937-21.574218 1.890625l-23.148438 27.585938c-5.441406 6.480468-4.597656 16.132812 1.886719 21.574218l29.546875 24.792969c-1.703125 3.96875-3.183594 8.039063-4.429688 12.171875h-38.570312c-8.445312 0-15.3125 6.871094-15.3125 15.316406v36.007813c0 8.445313 6.867188 15.316406 15.3125 15.316406h38.570312c1.246094 4.136719 2.726563 8.203125 4.429688 12.171875l-29.546875 24.789063c-6.46875 5.429687-7.316406 15.109375-1.886719 21.582031l23.148438 27.585938c5.425781 6.464843 15.105468 7.3125 21.574218 1.886718l29.558594-24.804687c3.613282 2.371093 7.359375 4.535156 11.207032 6.484375l-6.699219 37.988281c-1.46875 8.335937 4.085937 16.269531 12.421875 17.742187l35.464844 6.25c8.273437 1.46875 16.269531-4.070312 17.742187-12.421874l6.699219-38.003907c4.296875-.503906 8.558594-1.25 12.753906-2.230469l19.285156 33.402344c4.222656 7.316406 13.605469 9.832032 20.921875 5.609375l31.1875-18.007812c7.3125-4.222657 9.824219-13.605469 5.601563-20.917969l-19.296875-33.425781c2.957031-3.144531 5.738281-6.457031 8.320312-9.90625l36.261719 13.199219c7.941406 2.886718 16.726562-1.183594 19.628906-9.15625l12.316406-33.835938c2.894532-7.957031-1.195312-16.738281-9.152343-19.632812zm-4.980469 14.484374-12.316406 33.839844c-.015625.035156-.039063.105469-.144532.152344-.101562.050781-.171874.023438-.207031.011719l-41.644531-15.160157c-3.25-1.179687-6.886719.003907-8.816406 2.875-4.003906 5.960938-8.664063 11.511719-13.855469 16.496094-2.496094 2.398438-3.035156 6.1875-1.304687 9.183594l22.164062 38.390625c.078125.132813.03125.300781-.097656.375l-31.1875 18.003906c-.128906.078125-.296875.03125-.375-.097656l-22.152344-38.367187c-1.726562-2.996094-5.277344-4.425782-8.601562-3.464844-6.875 1.988281-14.011719 3.238281-21.214844 3.714844-3.453125.226562-6.308594 2.785156-6.910156 6.199218l-7.695313 43.65625c-.027344.148438-.167969.246094-.320313.222656-.414062-.074218-35.757812-6.152343-35.683593-6.570312l7.695312-43.632812c.597657-3.40625-1.203125-6.785157-4.363281-8.183594-6.5625-2.90625-12.835938-6.535156-18.644531-10.785156-2.800781-2.050782-6.628907-1.917969-9.277344.304687l-33.957031 28.492187c-.113282.097657-.285156.082032-.382813-.03125l-23.148437-27.585937c-.097656-.117187-.082032-.289063.03125-.386719l33.941406-28.480468c2.65625-2.226563 3.445312-5.976563 1.914062-9.082032-3.171874-6.449218-5.652343-13.257812-7.363281-20.238281-.824219-3.363281-3.839843-5.726563-7.304687-5.726563h-44.308594c-.152344 0-.273438-.121093-.273438-.273437v-36.011719c0-.148437.121094-.273437.273438-.273437h44.308594c3.464844 0 6.476562-2.363281 7.304687-5.726563 1.710938-6.976562 4.191407-13.785156 7.363281-20.234375 1.53125-3.109375.742188-6.859375-1.914062-9.085937l-33.941406-28.480469c-.027344-.019531-.085938-.070313-.097656-.183594-.007813-.113281.039062-.171875.066406-.199219l23.144531-27.585937c.027344-.027344.074219-.085937.1875-.097656.113281-.007813.171875.039062.199219.0625l33.957031 28.492187c2.652344 2.230469 6.484375 2.355469 9.277344.308594 5.808593-4.253906 12.082031-7.882812 18.644531-10.785156 3.160156-1.398438 4.960938-4.777344 4.363281-8.183594l-7.695312-43.632812c-.027344-.148438.074219-.292969.222656-.316407l35.464844-6.253906c.035156-.003906.109375-.019531.203125.046875.09375.0625.105468.140625.113281.175781l7.695313 43.65625c.601562 3.410157 3.457031 5.972657 6.910156 6.199219 7.207031.476562 14.34375 1.726562 21.214844 3.714844 3.324218.960937 6.875-.46875 8.605468-3.460938l22.148438-38.371094c.019531-.03125.058594-.097656.167968-.125.109376-.03125.175782.007813.207032.027344l31.1875 18.003906c.128906.074219.175781.242188.101562.375l-22.167968 38.390626c-1.730469 2.996093-1.191407 6.785156 1.304687 9.183593 5.191406 4.988281 9.855469 10.539063 13.855469 16.496094 1.929687 2.871094 5.566406 4.050781 8.816406 2.871094l41.644531-15.15625c.140625-.046875.296875.023437.351563.164062l12.316406 33.839844c.011719.035156.039062.105469-.011719.207031-.046875.105469-.117187.128906-.152343.144532l-41.652344 15.15625c-3.246094 1.183593-5.269532 4.429687-4.902344 7.867187.738281 6.917969.796875 14.085937 0 21.554687-.367188 3.4375 1.65625 6.683594 4.902344 7.867188l41.652344 15.15625c.035156.015625.105468.039062.152343.144531.050781.101563.023438.171875.011719.207031zm0 0" fill="#2c0157" data-original="#000000" style=""/><path xmlns="http://www.w3.org/2000/svg" d="m409.140625 116.285156-84.558594 84.558594-35.636719-35.636719c-2.9375-2.933593-7.699218-2.933593-10.636718 0-2.9375 2.9375-2.9375 7.699219 0 10.636719l36.476562 36.476562c5.414063 5.414063 14.179688 5.414063 19.59375 0l85.398438-85.398437c2.9375-2.9375 2.9375-7.699219 0-10.636719s-7.699219-2.9375-10.636719 0zm0 0" fill="#2c0157" data-original="#000000" style=""/></g></svg>
